<svg width="172" height="50" viewBox="0 0 172 50" fill="none" xmlns="http://www.w3.org/2000/svg">
<g filter="url(#filter0_d_75_797)">
<rect width="172" height="48" rx="24" fill="#3C28D5"/>
<rect x="0.5" y="0.5" width="171" height="47" rx="23.5" stroke="#FFFEFE"/>
<path fill-rule="evenodd" clip-rule="evenodd" d="M35 25H29V31H27V25H21V23H27V17H29V23H35V25Z" fill="#FFFEFE"/>
<path d="M49.8877 20.373L46.9141 29H45.1162L48.8623 19.0469H50.0107L49.8877 20.373ZM52.376 29L49.3955 20.373L49.2656 19.0469H50.4209L54.1807 29H52.376ZM52.2324 25.3086V26.6689H46.8184V25.3086H52.2324ZM59.4365 29H57.3105L57.3242 27.6396H59.4365C60.0518 27.6396 60.5667 27.5052 60.9814 27.2363C61.4007 26.9674 61.7152 26.5824 61.9248 26.0811C62.139 25.5798 62.2461 24.9827 62.2461 24.29V23.75C62.2461 23.2122 62.1846 22.736 62.0615 22.3213C61.943 21.9066 61.7653 21.5579 61.5283 21.2754C61.2959 20.9928 61.0088 20.7786 60.667 20.6328C60.3298 20.487 59.9401 20.4141 59.498 20.4141H57.2695V19.0469H59.498C60.1589 19.0469 60.7627 19.1585 61.3096 19.3818C61.8564 19.6006 62.3281 19.9173 62.7246 20.332C63.1257 20.7467 63.4333 21.2435 63.6475 21.8223C63.8617 22.401 63.9688 23.0482 63.9688 23.7637V24.29C63.9688 25.0055 63.8617 25.6527 63.6475 26.2314C63.4333 26.8102 63.1257 27.307 62.7246 27.7217C62.3236 28.1318 61.8451 28.4486 61.2891 28.6719C60.7376 28.8906 60.1201 29 59.4365 29ZM58.2607 19.0469V29H56.5449V19.0469H58.2607ZM69.833 29H67.707L67.7207 27.6396H69.833C70.4482 27.6396 70.9632 27.5052 71.3779 27.2363C71.7972 26.9674 72.1117 26.5824 72.3213 26.0811C72.5355 25.5798 72.6426 24.9827 72.6426 24.29V23.75C72.6426 23.2122 72.5811 22.736 72.458 22.3213C72.3395 21.9066 72.1618 21.5579 71.9248 21.2754C71.6924 20.9928 71.4053 20.7786 71.0635 20.6328C70.7262 20.487 70.3366 20.4141 69.8945 20.4141H67.666V19.0469H69.8945C70.5553 19.0469 71.1592 19.1585 71.7061 19.3818C72.2529 19.6006 72.7246 19.9173 73.1211 20.332C73.5221 20.7467 73.8298 21.2435 74.0439 21.8223C74.2581 22.401 74.3652 23.0482 74.3652 23.7637V24.29C74.3652 25.0055 74.2581 25.6527 74.0439 26.2314C73.8298 26.8102 73.5221 27.307 73.1211 27.7217C72.7201 28.1318 72.2415 28.4486 71.6855 28.6719C71.1341 28.8906 70.5166 29 69.833 29ZM68.6572 19.0469V29H66.9414V19.0469H68.6572ZM85.8545 25.2881H83.2637V23.9277H85.8545C86.3057 23.9277 86.6702 23.8548 86.9482 23.709C87.2262 23.5632 87.429 23.3626 87.5566 23.1074C87.6888 22.8477 87.7549 22.5514 87.7549 22.2188C87.7549 21.9043 87.6888 21.6104 87.5566 21.3369C87.429 21.0589 87.2262 20.8356 86.9482 20.667C86.6702 20.4984 86.3057 20.4141 85.8545 20.4141H83.79V29H82.0742V19.0469H85.8545C86.6247 19.0469 87.2786 19.1836 87.8164 19.457C88.3587 19.7259 88.7712 20.0996 89.0537 20.5781C89.3363 21.0521 89.4775 21.5944 89.4775 22.2051C89.4775 22.8477 89.3363 23.3991 89.0537 23.8594C88.7712 24.3197 88.3587 24.6729 87.8164 24.9189C87.2786 25.165 86.6247 25.2881 85.8545 25.2881ZM92.2656 19.0469H95.7861C96.5426 19.0469 97.1875 19.1608 97.7207 19.3887C98.2539 19.6165 98.6618 19.9538 98.9443 20.4004C99.2314 20.8424 99.375 21.3893 99.375 22.041C99.375 22.5378 99.2839 22.9753 99.1016 23.3535C98.9193 23.7318 98.6618 24.0508 98.3291 24.3105C97.9964 24.5658 97.5999 24.764 97.1396 24.9053L96.6201 25.1582H93.4551L93.4414 23.7979H95.8135C96.2236 23.7979 96.5654 23.7249 96.8389 23.5791C97.1123 23.4333 97.3174 23.235 97.4541 22.9844C97.5954 22.7292 97.666 22.4421 97.666 22.123C97.666 21.7767 97.5977 21.4759 97.4609 21.2207C97.3288 20.9609 97.1237 20.7627 96.8457 20.626C96.5677 20.4847 96.2145 20.4141 95.7861 20.4141H93.9814V29H92.2656V19.0469ZM97.9463 29L95.6084 24.5293L97.4062 24.5225L99.7783 28.9111V29H97.9463ZM110.271 23.75V24.2969C110.271 25.0488 110.173 25.7233 109.977 26.3203C109.781 26.9173 109.5 27.4255 109.136 27.8447C108.776 28.264 108.343 28.5853 107.837 28.8086C107.331 29.0273 106.771 29.1367 106.155 29.1367C105.545 29.1367 104.986 29.0273 104.48 28.8086C103.979 28.5853 103.544 28.264 103.175 27.8447C102.806 27.4255 102.519 26.9173 102.313 26.3203C102.113 25.7233 102.013 25.0488 102.013 24.2969V23.75C102.013 22.998 102.113 22.3258 102.313 21.7334C102.514 21.1364 102.797 20.6283 103.161 20.209C103.53 19.7852 103.965 19.4639 104.467 19.2451C104.973 19.0218 105.531 18.9102 106.142 18.9102C106.757 18.9102 107.317 19.0218 107.823 19.2451C108.329 19.4639 108.764 19.7852 109.129 20.209C109.493 20.6283 109.774 21.1364 109.97 21.7334C110.17 22.3258 110.271 22.998 110.271 23.75ZM108.555 24.2969V23.7363C108.555 23.1803 108.5 22.6904 108.391 22.2666C108.286 21.8382 108.129 21.4805 107.919 21.1934C107.714 20.9017 107.461 20.6829 107.16 20.5371C106.859 20.3867 106.52 20.3115 106.142 20.3115C105.763 20.3115 105.426 20.3867 105.13 20.5371C104.834 20.6829 104.581 20.9017 104.371 21.1934C104.166 21.4805 104.009 21.8382 103.899 22.2666C103.79 22.6904 103.735 23.1803 103.735 23.7363V24.2969C103.735 24.8529 103.79 25.3451 103.899 25.7734C104.009 26.2018 104.168 26.5641 104.378 26.8604C104.592 27.152 104.847 27.373 105.144 27.5234C105.44 27.6693 105.777 27.7422 106.155 27.7422C106.538 27.7422 106.878 27.6693 107.174 27.5234C107.47 27.373 107.721 27.152 107.926 26.8604C108.131 26.5641 108.286 26.2018 108.391 25.7734C108.5 25.3451 108.555 24.8529 108.555 24.2969ZM120.879 23.9141V27.7148C120.738 27.9017 120.517 28.1068 120.216 28.3301C119.92 28.5488 119.525 28.738 119.033 28.8975C118.541 29.057 117.928 29.1367 117.194 29.1367C116.57 29.1367 115.998 29.0319 115.479 28.8223C114.959 28.6081 114.51 28.2959 114.132 27.8857C113.758 27.4756 113.469 26.9766 113.264 26.3887C113.059 25.7962 112.956 25.1217 112.956 24.3652V23.6748C112.956 22.9229 113.049 22.2529 113.236 21.665C113.428 21.0726 113.701 20.5713 114.057 20.1611C114.412 19.751 114.84 19.4411 115.342 19.2314C115.848 19.0173 116.42 18.9102 117.058 18.9102C117.873 18.9102 118.548 19.0469 119.081 19.3203C119.619 19.5892 120.034 19.9629 120.325 20.4414C120.617 20.9199 120.801 21.4668 120.879 22.082H119.197C119.143 21.7357 119.035 21.4258 118.876 21.1523C118.721 20.8789 118.498 20.6647 118.206 20.5098C117.919 20.3503 117.545 20.2705 117.085 20.2705C116.688 20.2705 116.34 20.3457 116.039 20.4961C115.738 20.6465 115.488 20.8675 115.287 21.1592C115.091 21.4508 114.943 21.8063 114.843 22.2256C114.743 22.6449 114.692 23.1234 114.692 23.6611V24.3652C114.692 24.9121 114.749 25.3975 114.863 25.8213C114.982 26.2451 115.15 26.6029 115.369 26.8945C115.592 27.1862 115.864 27.4072 116.183 27.5576C116.502 27.7035 116.862 27.7764 117.263 27.7764C117.655 27.7764 117.976 27.7445 118.227 27.6807C118.477 27.6123 118.675 27.5326 118.821 27.4414C118.972 27.3457 119.088 27.2546 119.17 27.168V25.1924H117.099V23.9141H120.879ZM124.029 19.0469H127.55C128.306 19.0469 128.951 19.1608 129.484 19.3887C130.018 19.6165 130.425 19.9538 130.708 20.4004C130.995 20.8424 131.139 21.3893 131.139 22.041C131.139 22.5378 131.048 22.9753 130.865 23.3535C130.683 23.7318 130.425 24.0508 130.093 24.3105C129.76 24.5658 129.364 24.764 128.903 24.9053L128.384 25.1582H125.219L125.205 23.7979H127.577C127.987 23.7979 128.329 23.7249 128.603 23.5791C128.876 23.4333 129.081 23.235 129.218 22.9844C129.359 22.7292 129.43 22.4421 129.43 22.123C129.43 21.7767 129.361 21.4759 129.225 21.2207C129.092 20.9609 128.887 20.7627 128.609 20.626C128.331 20.4847 127.978 20.4141 127.55 20.4141H125.745V29H124.029V19.0469ZM129.71 29L127.372 24.5293L129.17 24.5225L131.542 28.9111V29H129.71ZM137.974 20.373L135 29H133.202L136.948 19.0469H138.097L137.974 20.373ZM140.462 29L137.481 20.373L137.352 19.0469H138.507L142.267 29H140.462ZM140.318 25.3086V26.6689H134.904V25.3086H140.318ZM145.328 19.0469H146.859L149.737 26.7236L152.608 19.0469H154.14L150.339 29H149.122L145.328 19.0469ZM144.631 19.0469H146.087L146.34 25.6914V29H144.631V19.0469ZM153.381 19.0469H154.844V29H153.128V25.6914L153.381 19.0469Z" fill="#FFFEFE"/>
</g>
<defs>
<filter id="filter0_d_75_797" x="0" y="0" width="172" height="50" filterUnits="userSpaceOnUse" color-interpolation-filters="sRGB">
<feFlood flood-opacity="0" result="BackgroundImageFix"/>
<feColorMatrix in="SourceAlpha" type="matrix" values="0 0 0 0 0 0 0 0 0 0 0 0 0 0 0 0 0 0 127 0" result="hardAlpha"/>
<feOffset dy="2"/>
<feColorMatrix type="matrix" values="0 0 0 0 0 0 0 0 0 0 0 0 0 0 0 0 0 0 1 0"/>
<feBlend mode="normal" in2="BackgroundImageFix" result="effect1_dropShadow_75_797"/>
<feBlend mode="normal" in="SourceGraphic" in2="effect1_dropShadow_75_797" result="shape"/>
</filter>
</defs>
</svg>
