<svg width="38" height="32" viewBox="0 0 38 32" fill="none" xmlns="http://www.w3.org/2000/svg">
<path d="M2.375 4.7165C4.47687 3.83775 7.49075 2.89012 10.4215 2.59562C13.5802 2.27737 16.2593 2.74525 17.8125 4.38162V27.5284C15.5919 26.2696 12.7775 26.0962 10.1816 26.3575C7.37913 26.6425 4.55288 27.4524 2.375 28.2836V4.7165ZM20.1875 4.38162C21.7407 2.74525 24.4198 2.27737 27.5785 2.59562C30.5093 2.89012 33.5231 3.83775 35.625 4.7165V28.2836C33.4448 27.4524 30.6209 26.6401 27.8184 26.3599C25.2201 26.0962 22.4081 26.2672 20.1875 27.5284V4.38162ZM19 2.23462C16.6606 0.222999 13.2691 -0.0762508 10.1816 0.232499C6.58588 0.595874 2.95688 1.8285 0.695875 2.85687C0.488416 2.95123 0.312491 3.10329 0.1891 3.2949C0.0657084 3.48652 6.31071e-05 3.70959 0 3.9375L0 30.0625C5.50097e-05 30.2612 0.0499632 30.4567 0.145153 30.6311C0.240343 30.8055 0.377772 30.9532 0.544851 31.0607C0.71193 31.1683 0.903318 31.2322 1.10149 31.2466C1.29965 31.2609 1.49826 31.2254 1.67913 31.1431C3.77387 30.1931 7.14875 29.0508 10.4191 28.7206C13.7655 28.3834 16.5704 28.9272 18.0737 30.8035C18.185 30.9422 18.326 31.0541 18.4863 31.131C18.6466 31.208 18.8222 31.2479 19 31.2479C19.1778 31.2479 19.3534 31.208 19.5137 31.131C19.674 31.0541 19.815 30.9422 19.9263 30.8035C21.4296 28.9272 24.2345 28.3834 27.5785 28.7206C30.8513 29.0508 34.2285 30.1931 36.3209 31.1431C36.5017 31.2254 36.7003 31.2609 36.8985 31.2466C37.0967 31.2322 37.2881 31.1683 37.4551 31.0607C37.6222 30.9532 37.7597 30.8055 37.8548 30.6311C37.95 30.4567 37.9999 30.2612 38 30.0625V3.9375C37.9999 3.70959 37.9343 3.48652 37.8109 3.2949C37.6875 3.10329 37.5116 2.95123 37.3041 2.85687C35.0431 1.8285 31.4141 0.595874 27.8184 0.232499C24.7309 -0.0786258 21.3394 0.222999 19 2.23462Z" fill="black"/>
</svg>
