<svg width="306" height="34" viewBox="0 0 306 34" fill="none" xmlns="http://www.w3.org/2000/svg">
<path d="M9.64399 33.72C8.74799 33.72 7.75599 33.608 6.66799 33.384C5.57999 33.192 4.53999 32.872 3.54799 32.424C2.58799 31.976 1.78799 31.368 1.14799 30.6C0.539993 29.8 0.235993 28.824 0.235993 27.672C0.235993 27.032 0.315993 26.36 0.475993 25.656C0.635993 24.952 0.843993 24.376 1.09999 23.928H2.20399C2.33199 26.36 3.13199 28.28 4.60399 29.688C6.07599 31.096 7.94799 31.8 10.22 31.8C11.788 31.8 13.036 31.512 13.964 30.936C14.924 30.36 15.612 29.624 16.028 28.728C16.476 27.8 16.7 26.824 16.7 25.8C16.7 24.328 16.332 23.128 15.596 22.2C14.86 21.24 13.9 20.44 12.716 19.8C11.564 19.128 10.332 18.504 9.01999 17.928C7.73999 17.32 6.50799 16.648 5.32399 15.912C4.17199 15.176 3.22799 14.264 2.49199 13.176C1.75599 12.088 1.38799 10.712 1.38799 9.048C1.38799 7.32 1.81999 5.816 2.68399 4.536C3.54799 3.224 4.76399 2.2 6.33199 1.464C7.89999 0.728 9.73999 0.36 11.852 0.36C13.708 0.36 15.228 0.504 16.412 0.792C17.628 1.08 18.604 1.368 19.34 1.656V8.616H18.236C18.044 6.568 17.436 5 16.412 3.912C15.388 2.824 13.756 2.28 11.516 2.28C9.94799 2.28 8.66799 2.536 7.67599 3.048C6.71599 3.528 6.01199 4.168 5.56399 4.968C5.14799 5.736 4.93999 6.552 4.93999 7.416C4.93999 8.696 5.30799 9.752 6.04399 10.584C6.77999 11.416 7.72399 12.136 8.87599 12.744C10.06 13.352 11.308 13.96 12.62 14.568C13.964 15.176 15.212 15.88 16.364 16.68C17.548 17.48 18.508 18.472 19.244 19.656C19.98 20.84 20.348 22.344 20.348 24.168C20.348 26.152 19.884 27.864 18.956 29.304C18.06 30.712 16.796 31.8 15.164 32.568C13.564 33.336 11.724 33.72 9.64399 33.72ZM25.3697 7.8H47.7377V15.288H46.6337C46.6017 14.168 46.4417 13.176 46.1537 12.312C45.8657 11.448 45.3537 10.776 44.6177 10.296C43.8817 9.784 42.7777 9.528 41.3057 9.528H38.5217V28.2C38.5217 29.288 38.6337 30.088 38.8577 30.6C39.0817 31.112 39.4817 31.448 40.0577 31.608C40.6657 31.768 41.5137 31.864 42.6017 31.896V33H31.7537V31.896C32.4577 31.864 33.0177 31.768 33.4337 31.608C33.8497 31.448 34.1537 31.112 34.3457 30.6C34.5377 30.088 34.6337 29.288 34.6337 28.2V9.528H31.7537C30.3137 9.528 29.2257 9.784 28.4897 10.296C27.7537 10.776 27.2417 11.448 26.9537 12.312C26.6977 13.176 26.5377 14.168 26.4737 15.288H25.3697V7.8ZM61.3226 33.72C59.0826 33.72 57.3386 33.128 56.0906 31.944C54.8426 30.76 54.2186 28.888 54.2186 26.328V12.6C54.2186 11.48 54.1066 10.68 53.8826 10.2C53.6906 9.688 53.3386 9.352 52.8266 9.192C52.3146 9.032 51.5786 8.936 50.6186 8.904V7.8H60.9866V8.904C60.2826 8.936 59.7226 9.032 59.3066 9.192C58.8906 9.352 58.5866 9.688 58.3946 10.2C58.2026 10.68 58.1066 11.48 58.1066 12.6V25.128C58.1066 26.76 58.3946 28.12 58.9706 29.208C59.5466 30.296 60.6666 30.84 62.3306 30.84C63.7386 30.84 65.0986 30.424 66.4106 29.592C67.7226 28.76 68.7946 27.512 69.6266 25.848C70.4586 24.152 70.8746 22.04 70.8746 19.512V12.6C70.8746 11.48 70.7626 10.68 70.5386 10.2C70.3146 9.688 69.9146 9.352 69.3386 9.192C68.7626 9.032 67.9146 8.936 66.7946 8.904V7.8H77.4506V8.904C76.7466 8.936 76.1866 9.032 75.7706 9.192C75.3546 9.352 75.0506 9.688 74.8586 10.2C74.6666 10.68 74.5706 11.48 74.5706 12.6V28.248C74.5706 29.336 74.6666 30.136 74.8586 30.648C75.0506 31.128 75.3706 31.448 75.8186 31.608C76.2666 31.768 76.8746 31.864 77.6426 31.896V33H71.4986C71.3066 32.488 71.1626 31.88 71.0666 31.176C70.9706 30.44 70.9226 29.448 70.9226 28.2V26.52H70.8266C69.9306 28.6 68.9066 30.152 67.7546 31.176C66.6346 32.2 65.5146 32.872 64.3946 33.192C63.2746 33.544 62.2506 33.72 61.3226 33.72ZM81.8892 33V31.896C82.5932 31.864 83.1532 31.768 83.5692 31.608C83.9852 31.448 84.2892 31.112 84.4812 30.6C84.6732 30.088 84.7692 29.288 84.7692 28.2V12.6C84.7692 11.48 84.6572 10.68 84.4332 10.2C84.2092 9.688 83.8092 9.352 83.2332 9.192C82.6572 9.032 81.8092 8.936 80.6892 8.904V7.8H84.7692C86.2732 7.8 87.8572 7.768 89.5212 7.704C91.1852 7.608 92.7212 7.56 94.1292 7.56C96.8812 7.56 99.2332 8.088 101.185 9.144C103.137 10.168 104.625 11.56 105.649 13.32C106.705 15.08 107.233 17.048 107.233 19.224C107.233 21.08 106.881 22.84 106.177 24.504C105.505 26.168 104.545 27.64 103.297 28.92C102.081 30.2 100.641 31.208 98.9772 31.944C97.3452 32.648 95.5692 33 93.6492 33H81.8892ZM93.0732 31.272C95.4092 31.272 97.2972 30.728 98.7372 29.64C100.177 28.552 101.233 27.16 101.905 25.464C102.577 23.736 102.913 21.912 102.913 19.992C102.913 16.664 102.049 14.056 100.321 12.168C98.5932 10.248 96.2412 9.288 93.2652 9.288C91.5372 9.288 90.3372 9.48 89.6652 9.864C88.9932 10.248 88.6572 11.16 88.6572 12.6V28.2C88.6572 29.576 88.9932 30.44 89.6652 30.792C90.3372 31.112 91.4732 31.272 93.0732 31.272ZM123.493 7.8H131.653V8.904C130.949 8.968 130.325 9.304 129.781 9.912C129.269 10.488 128.613 11.384 127.813 12.6L123.061 19.992C122.741 20.504 122.501 20.968 122.341 21.384C122.213 21.8 122.149 22.424 122.149 23.256V28.2C122.149 29.288 122.261 30.088 122.485 30.6C122.709 31.112 123.109 31.448 123.685 31.608C124.293 31.768 125.141 31.864 126.229 31.896V33H115.381V31.896C116.085 31.864 116.645 31.768 117.061 31.608C117.477 31.448 117.781 31.112 117.973 30.6C118.165 30.088 118.261 29.288 118.261 28.2V23.256C118.261 22.424 118.197 21.8 118.069 21.384C117.941 20.968 117.733 20.504 117.445 19.992L113.317 12.6C112.709 11.512 112.197 10.712 111.781 10.2C111.397 9.688 111.013 9.352 110.629 9.192C110.245 9.032 109.781 8.936 109.237 8.904V7.8H118.741V8.904C117.557 8.968 116.869 9.224 116.677 9.672C116.517 10.088 116.869 11.064 117.733 12.6L121.285 18.984H121.381L125.557 12.6C126.389 11.352 126.581 10.44 126.133 9.864C125.685 9.288 124.805 8.968 123.493 8.904V7.8ZM159.357 33.72C158.461 33.72 157.469 33.608 156.381 33.384C155.293 33.192 154.253 32.872 153.261 32.424C152.301 31.976 151.501 31.368 150.861 30.6C150.253 29.8 149.949 28.824 149.949 27.672C149.949 27.032 150.029 26.36 150.189 25.656C150.349 24.952 150.557 24.376 150.813 23.928H151.917C152.045 26.36 152.845 28.28 154.317 29.688C155.789 31.096 157.661 31.8 159.933 31.8C161.501 31.8 162.749 31.512 163.677 30.936C164.637 30.36 165.325 29.624 165.741 28.728C166.189 27.8 166.413 26.824 166.413 25.8C166.413 24.328 166.045 23.128 165.309 22.2C164.573 21.24 163.613 20.44 162.429 19.8C161.277 19.128 160.045 18.504 158.733 17.928C157.453 17.32 156.221 16.648 155.037 15.912C153.885 15.176 152.941 14.264 152.205 13.176C151.469 12.088 151.101 10.712 151.101 9.048C151.101 7.32 151.533 5.816 152.397 4.536C153.261 3.224 154.477 2.2 156.045 1.464C157.613 0.728 159.453 0.36 161.565 0.36C163.421 0.36 164.941 0.504 166.125 0.792C167.341 1.08 168.317 1.368 169.053 1.656V8.616H167.949C167.757 6.568 167.149 5 166.125 3.912C165.101 2.824 163.469 2.28 161.229 2.28C159.661 2.28 158.381 2.536 157.389 3.048C156.429 3.528 155.725 4.168 155.277 4.968C154.861 5.736 154.653 6.552 154.653 7.416C154.653 8.696 155.021 9.752 155.757 10.584C156.493 11.416 157.437 12.136 158.589 12.744C159.773 13.352 161.021 13.96 162.333 14.568C163.677 15.176 164.925 15.88 166.077 16.68C167.261 17.48 168.221 18.472 168.957 19.656C169.693 20.84 170.061 22.344 170.061 24.168C170.061 26.152 169.597 27.864 168.669 29.304C167.773 30.712 166.509 31.8 164.877 32.568C163.277 33.336 161.437 33.72 159.357 33.72ZM175.082 7.8H197.45V15.288H196.346C196.314 14.168 196.154 13.176 195.866 12.312C195.578 11.448 195.066 10.776 194.33 10.296C193.594 9.784 192.49 9.528 191.018 9.528H188.234V28.2C188.234 29.288 188.346 30.088 188.57 30.6C188.794 31.112 189.194 31.448 189.77 31.608C190.378 31.768 191.226 31.864 192.314 31.896V33H181.466V31.896C182.17 31.864 182.73 31.768 183.146 31.608C183.562 31.448 183.866 31.112 184.058 30.6C184.25 30.088 184.346 29.288 184.346 28.2V9.528H181.466C180.026 9.528 178.938 9.784 178.202 10.296C177.466 10.776 176.954 11.448 176.666 12.312C176.41 13.176 176.25 14.168 176.186 15.288H175.082V7.8ZM211.035 33.72C208.795 33.72 207.051 33.128 205.803 31.944C204.555 30.76 203.931 28.888 203.931 26.328V12.6C203.931 11.48 203.819 10.68 203.595 10.2C203.403 9.688 203.051 9.352 202.539 9.192C202.027 9.032 201.291 8.936 200.331 8.904V7.8H210.699V8.904C209.995 8.936 209.435 9.032 209.019 9.192C208.603 9.352 208.299 9.688 208.107 10.2C207.915 10.68 207.819 11.48 207.819 12.6V25.128C207.819 26.76 208.107 28.12 208.683 29.208C209.259 30.296 210.379 30.84 212.043 30.84C213.451 30.84 214.811 30.424 216.123 29.592C217.435 28.76 218.507 27.512 219.339 25.848C220.171 24.152 220.587 22.04 220.587 19.512V12.6C220.587 11.48 220.475 10.68 220.251 10.2C220.027 9.688 219.627 9.352 219.051 9.192C218.475 9.032 217.627 8.936 216.507 8.904V7.8H227.163V8.904C226.459 8.936 225.899 9.032 225.483 9.192C225.067 9.352 224.763 9.688 224.571 10.2C224.379 10.68 224.283 11.48 224.283 12.6V28.248C224.283 29.336 224.379 30.136 224.571 30.648C224.763 31.128 225.083 31.448 225.531 31.608C225.979 31.768 226.587 31.864 227.355 31.896V33H221.211C221.019 32.488 220.875 31.88 220.779 31.176C220.683 30.44 220.635 29.448 220.635 28.2V26.52H220.539C219.643 28.6 218.619 30.152 217.467 31.176C216.347 32.2 215.227 32.872 214.107 33.192C212.987 33.544 211.963 33.72 211.035 33.72ZM231.602 33V31.896C232.306 31.864 232.866 31.768 233.282 31.608C233.698 31.448 234.002 31.112 234.194 30.6C234.386 30.088 234.482 29.288 234.482 28.2V12.6C234.482 11.48 234.37 10.68 234.146 10.2C233.922 9.688 233.522 9.352 232.946 9.192C232.37 9.032 231.522 8.936 230.402 8.904V7.8H234.482C235.986 7.8 237.57 7.768 239.234 7.704C240.898 7.608 242.434 7.56 243.842 7.56C246.594 7.56 248.946 8.088 250.898 9.144C252.85 10.168 254.338 11.56 255.362 13.32C256.418 15.08 256.946 17.048 256.946 19.224C256.946 21.08 256.594 22.84 255.89 24.504C255.218 26.168 254.258 27.64 253.01 28.92C251.794 30.2 250.354 31.208 248.69 31.944C247.058 32.648 245.282 33 243.362 33H231.602ZM242.786 31.272C245.122 31.272 247.01 30.728 248.45 29.64C249.89 28.552 250.946 27.16 251.618 25.464C252.29 23.736 252.626 21.912 252.626 19.992C252.626 16.664 251.762 14.056 250.034 12.168C248.306 10.248 245.954 9.288 242.978 9.288C241.25 9.288 240.05 9.48 239.378 9.864C238.706 10.248 238.37 11.16 238.37 12.6V28.2C238.37 29.576 238.706 30.44 239.378 30.792C240.05 31.112 241.186 31.272 242.786 31.272ZM270.061 28.2C270.061 29.288 270.173 30.088 270.397 30.6C270.621 31.112 271.021 31.448 271.597 31.608C272.205 31.768 273.053 31.864 274.141 31.896V33H263.293V31.896C263.997 31.864 264.557 31.768 264.973 31.608C265.389 31.448 265.693 31.112 265.885 30.6C266.077 30.088 266.173 29.288 266.173 28.2V12.6C266.173 11.48 266.061 10.68 265.837 10.2C265.613 9.688 265.213 9.352 264.637 9.192C264.061 9.032 263.213 8.936 262.093 8.904V7.8H272.941V8.904C272.237 8.936 271.677 9.032 271.261 9.192C270.845 9.352 270.541 9.688 270.349 10.2C270.157 10.68 270.061 11.48 270.061 12.6V28.2ZM292.314 7.08C294.97 7.08 297.258 7.704 299.178 8.952C301.13 10.2 302.634 11.848 303.69 13.896C304.778 15.912 305.322 18.088 305.322 20.424C305.322 22.792 304.762 24.984 303.642 27C302.554 29.016 301.034 30.648 299.082 31.896C297.13 33.112 294.842 33.72 292.218 33.72C289.594 33.72 287.306 33.096 285.354 31.848C283.434 30.6 281.93 28.968 280.842 26.952C279.786 24.904 279.258 22.712 279.258 20.376C279.258 18.008 279.802 15.816 280.89 13.8C281.978 11.784 283.498 10.168 285.45 8.952C287.434 7.704 289.722 7.08 292.314 7.08ZM292.89 31.8C294.842 31.8 296.426 31.336 297.642 30.408C298.858 29.448 299.754 28.184 300.33 26.616C300.938 25.016 301.242 23.272 301.242 21.384C301.242 19.112 300.858 17.048 300.09 15.192C299.354 13.304 298.282 11.8 296.874 10.68C295.466 9.56 293.738 9 291.69 9C289.738 9 288.138 9.48 286.89 10.44C285.674 11.368 284.778 12.616 284.202 14.184C283.626 15.752 283.338 17.496 283.338 19.416C283.338 21.688 283.706 23.768 284.442 25.656C285.21 27.512 286.298 29 287.706 30.12C289.146 31.24 290.874 31.8 292.89 31.8Z" fill="#27174E"/>
</svg>
